<svg aria-hidden="true" style="width:0;height:0;position:absolute;overflow:hidden" xmlns="http://www.w3.org/2000/svg"><defs><symbol id="icon-arrow" viewBox="0 0 82 32"><path d="M81.414 17.414a2 2 0 0 0 0-2.828L68.686 1.858a2 2 0 1 0-2.828 2.828L77.172 16 65.858 27.314a2 2 0 1 0 2.828 2.828l12.728-12.728zM0 18h80v-4H0v4z"/></symbol><symbol id="icon-more-sign" viewBox="0 0 32 32"><path d="M10.586 3.272c-.362.362-.586.862-.586 1.414s.224 1.052.586 1.414l9.9 9.9-9.9 9.9a2 2 0 0 0 2.829 2.827l-.001.001 11.314-11.314c.362-.362.586-.862.586-1.414s-.224-1.052-.586-1.414L13.414 3.272c-.362-.362-.862-.586-1.414-.586s-1.052.224-1.414.586z"/></symbol><symbol id="icon-burger" viewBox="0 0 32 32"><path fill="none" stroke="#fff" style="stroke:var(--color1,#fff)" stroke-linecap="round" stroke-width="2" d="M6 10h20M6 16h20M6 22h20"/></symbol><symbol id="icon-close" viewBox="0 0 32 32"><path d="M23.884 6.706 16 14.59 8.116 6.706a.996.996 0 0 0-1.672.736c0 .26.099.497.262.674l-.001-.001 7.88 7.884-7.882 7.882a.998.998 0 0 0 1.41 1.412l7.886-7.882 7.884 7.884a.996.996 0 0 0 1.672-.736.992.992 0 0 0-.262-.674l.001.001-7.884-7.884 7.884-7.886a.998.998 0 0 0-1.41-1.412v.002z"/></symbol><symbol id="facebook-icon" viewBox="0 0 16 32"><path d="M14.143 15.972h-4.034v14.865H3.997V15.972H1.09v-5.224h2.907V7.367c0-2.418 1.142-6.203 6.166-6.203l4.527.019v5.071h-3.285c-.539 0-1.296.271-1.296 1.424v3.075h4.567l-.534 5.219z"/></symbol><symbol id="github-icon" viewBox="0 0 32 32"><path d="M16 0C7.212 0 0 7.212 0 16c0 7.499 5.262 14.312 12.25 16v-5.293c-.692.152-1.33.156-2.034-.052-.946-.279-1.714-.909-2.284-1.869-.364-.613-1.008-1.278-1.68-1.23l-.165-1.868c1.453-.124 2.711.886 3.457 2.14.332.558.713.884 1.203 1.029.473.14.982.072 1.574-.137.149-1.186.692-1.63 1.102-2.255v-.001c-4.167-.622-5.828-2.832-6.488-4.578-.874-2.317-.405-5.212 1.14-7.041.03-.036.084-.129.063-.194-.708-2.139.155-3.909.187-4.097.817.242.95-.243 3.551 1.337l.449.27c.188.112.129.048.317.034A13.544 13.544 0 0 1 16 7.723c1.136.015 2.273.178 3.404.484l.145.015c-.013-.002.04-.009.127-.062 3.248-1.968 3.132-1.324 4.003-1.608.032.188.883 1.987.182 4.099-.095.291 2.816 2.956 1.203 7.235-.659 1.746-2.32 3.957-6.487 4.578v.001c.534.814 1.176 1.247 1.173 2.927V32C26.738 30.312 32 23.499 32 16c0-8.788-7.212-16-16-16z"/></symbol><symbol id="telegram-icon" viewBox="0 0 44 32"><path d="m17.343 21.048-.675 8.86c.966 0 1.384-.387 1.885-.852l4.527-4.038 9.381 6.412c1.72.895 2.933.424 3.397-1.477l6.157-26.929.002-.002c.546-2.374-.92-3.302-2.596-2.72L3.227 13.235c-2.47.895-2.433 2.18-.42 2.762l9.253 2.686L33.554 6.131c1.012-.625 1.931-.279 1.175.346l-17.386 14.57z"/></symbol><symbol id="icon-ice-crema" viewBox="0 0 31 32"><path fill="#f8d24e" style="fill:var(--color1,#f8d24e)" d="M15.686 0c8.663 0 15.686 7.023 15.686 15.686v.008c0 8.663-7.023 15.686-15.686 15.686S0 24.357 0 15.694v-.008C0 7.023 7.023 0 15.686 0z"/><path style="fill:var(--color2,#000)" d="M15.763 6.35c.056.152.17.884.17 1.111v.008c0 .577-.225 1.102-.591 1.492l.001-.001c-.317.34-.634.529-1.394.836-.846.345-1.196.553-1.592.945-.402.402-.638.841-.723 1.357-.095.562 0 .959.288 1.186l.146.113-.232.147c-.467.307-1.318 1.03-1.464 1.252-.284.425-.255.822.066.983l.151.075-.17.161c-.255.241-.307.407-.27.841.024.289.014.445-.051.681-.08.307-.08.312.023.53.104.213.397.482.662.595.127.056.132.075.161.51.014.251.038 1.049.056 1.777.014.728.048 1.394.075 1.474a.567.567 0 0 0 .194.255c.274.189.463.393.585.629.137.27.289.931.747 3.218l.322 1.606.198.189c.378.373 1.101.543 2.292.543 1.195 0 1.909-.166 2.287-.539l.203-.193.292-1.489c.647-3.256.704-3.435 1.21-3.837.156-.128.307-.284.335-.355.033-.08.067-.7.09-1.635.019-.831.048-1.654.067-1.829l.028-.316.307-.232c.387-.297.538-.567.538-.983-.004-.491-.326-1.03-.912-1.512l-.279-.226.137-.194c.572-.789.213-1.88-.851-2.608l-.321-.222.118-.123c.525-.562.61-2.24.17-3.407-.264-.695-.87-1.451-1.611-2.008-.364-.274-1.366-.879-1.456-.879-.019 0-.019.033-.004.075zm1.361 1.649c.251.246.553.581.671.751.704.983.883 2.217.458 3.124-.17.368-.681.916-1.153 1.242-.723.501-2.349 1.343-3.482 1.805-1.824.742-2.883.884-3.005.397-.048-.184.09-.331.671-.718.524-.359 2.877-2.108 2.92-2.178.014-.019-.227.09-.53.241-1.025.52-1.512.42-1.488-.302.014-.525.392-1.119.916-1.46.133-.085.544-.274.922-.425 1.242-.501 1.621-.756 2.041-1.384.251-.373.525-1.064.543-1.357.005-.104.024-.184.038-.184s.227.203.477.449zm1.29 5.369c.345.193.704.525.86.784.275.467.133.936-.458 1.531-.642.653-1.739 1.276-2.944 1.673-1.111.364-2.174.534-3.696.586l-.945.033.615.038c.794.052 2.329.005 2.925-.09 1.583-.251 2.93-.752 3.894-1.441.218-.156.444-.284.506-.284.156 0 .836.653.973.926.076.156.095.27.08.42-.071.629-.836.964-2.684 1.186-2.259.27-5.212.005-6.474-.576-.596-.274-.695-.43-.543-.846.047-.132.056-.289.038-.511-.024-.293-.019-.331.085-.439.237-.255.634-.402 2.089-.771.51-.132 1.205-.34 1.535-.463.803-.293 2.311-1.054 3.01-1.522.657-.435.752-.454 1.134-.236zm-6.276 5.784c.993.289 1.872.373 3.507.34 1.229-.023 1.985-.099 3.076-.293.223-.038.416-.071.44-.071.052 0 .038 1.815-.019 2.292-.061.506-.199.898-.345.993-.151.099-.907.203-1.919.26-2.074.113-4.206 0-4.867-.265-.359-.146-.397-.336-.402-2.089 0-1.167.009-1.328.071-1.304.038.014.245.075.458.137zm1.12 4.017c.341.043.709.085.822.099l.204.024-.18.198c-.232.25-.586.751-.713 1.006-.146.293-.194.312-.411.194l-.184-.104-.104-.642a17.11 17.11 0 0 0-.152-.859l.02.117c-.043-.122-.085-.122.699-.033zm5.038-.052c0 .009-.024.132-.048.27-.028.141-.146.912-.264 1.715-.241 1.678-.402 2.466-.548 2.731-.203.355-.69.562-1.479.629-.307.024-1.234-.038-1.286-.085-.038-.042.775-1.049.903-1.115.118-.067.151-.056.552.151.468.247.705.284.705.128s-.123-.307-.425-.515c-.279-.199-.378-.312-.378-.445 0-.038.137-.25.302-.472s.406-.577.529-.789l.232-.383.212.029c.43.061.543.056.53-.038-.009-.048-.09-.184-.18-.298-.09-.118-.161-.237-.161-.26 0-.09.439-.917.582-1.092.123-.151.222-.227.222-.161zm-2.954.377c.236.156 1.124.926 1.181 1.021.024.043-.888 1.47-1.068 1.673-.019.024-.118-.023-.217-.099-.22-.166-.488-.352-.762-.531l-.06-.037-.638-.42.383-.648c.68-1.139.666-1.12.813-1.12.075 0 .241.071.369.161zm1.791.17c-.166.203-.302.331-.359.331-.123 0-.322-.109-.657-.355l-.279-.203.558-.033c.246-.009.47-.024.692-.046l-.046.004c.378-.061.378-.056.09.303zm-3.573 2.274c.435.17 1.172.572 1.385.752.151.122.151.132.09.283-.1.199-.197.364-.304.523l.011-.017a7.284 7.284 0 0 0-.295.482l-.022.043c-.151.293-.198.317-.51.232-.336-.1-.514-.27-.609-.577-.128-.43-.331-1.644-.307-1.833.009-.071.208-.028.562.114z"/></symbol><symbol id="icon-weight" viewBox="0 0 32 32"><path fill="#f8d24e" style="fill:var(--color1,#f8d24e)" d="M16 0c8.837 0 16 7.163 16 16s-7.163 16-16 16S0 24.837 0 16 7.163 0 16 0z"/><path style="fill:var(--color2,#000)" d="M14.688 4.874c-2.861.424-5.218 2.013-6.085 4.093-.276.657-.351 1.061-.351 1.853.005.585.026.802.117 1.118.186.621.319.936.595 1.382l.256.413-.288.352c-2.271 2.826-2.521 6.8-.627 9.931.707 1.175 1.862 2.329 2.989 3.002l.335.196 9.175-.077.218-.119c.761-.429 1.835-1.387 2.436-2.163a9.003 9.003 0 0 0 1.737-3.993l.007-.053c.085-.533.085-2.112-.005-2.614-.271-1.547-.851-2.872-1.766-4.047a4.693 4.693 0 0 1-.314-.424c0-.01.096-.171.207-.352.255-.406.467-.875.612-1.373l.01-.04c.143-.518.143-1.811 0-2.329-.511-1.837-2.042-3.369-4.207-4.212-.607-.238-1.644-.492-2.314-.574-.622-.072-2.159-.058-2.739.031zm3.238.843c2.84.554 4.92 2.292 5.303 4.435.085.481.032 1.299-.111 1.754a5.58 5.58 0 0 1-.723 1.412c-.128.182-.234.388-.234.456s.111.243.271.419c1.329 1.475 2.031 3.322 2.031 5.32-.005 2.272-.877 4.264-2.558 5.827a8.892 8.892 0 0 1-.915.75l-.399.269-8.792.036-.34-.218c-1.234-.801-2.346-2.126-2.963-3.534a7.945 7.945 0 0 1-.223-5.697c.335-.963.782-1.749 1.462-2.577.277-.332.404-.528.404-.621 0-.078-.138-.332-.319-.595-.638-.927-.899-1.956-.744-2.929.16-.983.606-1.791 1.431-2.592 1.074-1.041 2.574-1.73 4.334-1.988.728-.109 2.34-.067 3.085.072z"/><path style="fill:var(--color2,#000)" d="M14.927 6.628c-2.18.357-3.888 1.568-4.447 3.157-.128.357-.148.497-.148 1.009s.021.652.148 1.009c.08.228.229.544.33.704.277.445.399.461.947.129a8.462 8.462 0 0 1 2.683-1.062l.056-.01c.659-.134 1.925-.186 2.643-.103a8.737 8.737 0 0 1 3.313 1.107c.277.16.559.294.628.294.404 0 .92-1.164.92-2.069 0-2.013-1.926-3.736-4.654-4.166-.58-.093-1.862-.093-2.42 0zm2.632.828c.915.196 1.756.57 2.388 1.061.851.657 1.308 1.573 1.234 2.458-.027.352-.16.828-.239.88-.021.01-.319-.114-.659-.279a10.17 10.17 0 0 0-2.254-.779l-.07-.013c-.495-.103-.702-.119-1.809-.114-1.09 0-1.318.016-1.792.114a9.606 9.606 0 0 0-2.244.766c-.793.378-.75.383-.894-.083-.186-.605-.069-1.407.292-2.013.192-.321.718-.854 1.101-1.117.73-.502 1.368-.73 2.739-.979.282-.051 1.846.021 2.208.099zm-.866 6.675c-.149.187-.149.363.005.513.101.099.202.124.57.15a4.673 4.673 0 0 1 2.027.623l-.022-.012c.436.259 1.101.885 1.399 1.335.442.646.744 1.573.744 2.257 0 .238.022.31.133.413.17.171.394.171.559 0 .117-.119.122-.15.09-.657-.149-2.505-2.292-4.595-4.856-4.736l-.532-.031-.116.145z"/></symbol><symbol id="icon-cow" viewBox="0 0 31 32"><path fill="#f8d24e" style="fill:var(--color1,#f8d24e)" d="M15.686.144c8.663 0 15.686 7.023 15.686 15.686v.008c0 8.663-7.023 15.686-15.686 15.686S0 24.501 0 15.838v-.008C0 7.167 7.023.144 15.686.144z"/><path fill="#131313" style="fill:var(--color3,#131313)" d="M8.747 4.528c-.184.159-.711 1.257-.9 1.857a5.705 5.705 0 0 0-.271 2.068c.041 1.098.317 1.931.925 2.801.159.228.287.424.287.44 0 .011-.097.021-.22.021-.527 0-1.513.175-2.269.403-1.201.361-1.906.992-1.906 1.698 0 .25.225.674.465.891.465.42 1.482.818 2.576 1.008.378.069 1.503.186 1.753.191.046 0 .062.245.062 1.045 0 .69.025 1.225.077 1.554.184 1.178.756 2.424 1.512 3.305l.261.302-.174.281c-.255.398-.353.7-.383 1.151-.077 1.082.597 2.042 1.901 2.716 2.483 1.289 6.342.785 7.788-1.018.705-.881.787-1.889.23-2.801l-.174-.281.312-.376c.583-.7.961-1.4 1.247-2.286.24-.753.332-1.48.332-2.632 0-.525.015-.96.041-.96a22.082 22.082 0 0 0 1.722-.191c1.099-.191 2.096-.584 2.576-1.008.24-.218.465-.642.465-.891 0-.786-.797-1.422-2.28-1.804-.485-.127-1.4-.281-1.845-.307l-.21-.016.23-.318c.286-.387.644-1.14.782-1.634.388-1.427.148-3.087-.685-4.673-.347-.658-.587-.811-.868-.552-.107.102-.153.239-.255.738-.317 1.586-.905 2.844-1.763 3.771l-.378.414h-8.085l-.338-.366c-.838-.923-1.446-2.227-1.763-3.819-.102-.499-.148-.636-.255-.737-.169-.154-.333-.149-.521.016zM9.4 7.674a8.482 8.482 0 0 0 1.006 1.665l.317.408-.332.249a3.337 3.337 0 0 0-.828.966l-.097.174-.245-.334c-.838-1.157-1.048-2.573-.603-4.043.215-.71.21-.705.403-.09.092.297.266.748.378 1.003zm13.302-1.12a5.14 5.14 0 0 1 .292 1.725v.066-.003c0 .965-.255 1.782-.792 2.514l-.24.329-.179-.302a3.214 3.214 0 0 0-.885-.975l-.009-.006a1.227 1.227 0 0 1-.245-.191c0-.016.097-.138.22-.27.567-.631 1.175-1.766 1.477-2.743.092-.302.184-.552.199-.552s.092.186.163.409zm-2.61 3.878c.567.238 1.109.922 1.196 1.501.046.319.153.52.291.552.061.01.486.048.941.079 1.614.107 2.887.451 3.429.923.25.223.225.408-.077.637-.603.456-1.906.801-3.235.86-.879.037-1.063.063-1.18.185-.087.09-.097.186-.097 1.146 0 1.3-.067 2.048-.23 2.652-.23.822-.685 1.698-1.216 2.318l-.22.255-.455-.271a5.525 5.525 0 0 0-1.648-.676l-.038-.008c-1.937-.462-4.078-.181-5.519.727l-.333.212-.21-.249a7.744 7.744 0 0 1-.915-1.453c-.393-.913-.511-1.655-.511-3.289 0-1.586.082-1.47-1.094-1.533-1.503-.08-2.648-.35-3.368-.806-.531-.339-.444-.642.297-.998.71-.345 1.687-.552 3.041-.636 1.053-.069 1.078-.085 1.175-.594.143-.769.71-1.405 1.426-1.608.179-.053 1.18-.063 4.247-.058l4.012.011.291.122zm-2.873 10.98c1.252.307 2.187.88 2.591 1.591.097.164.138.334.158.594.021.323.006.403-.117.668-.567 1.205-2.652 2-4.773 1.82-2.55-.212-4.226-1.634-3.567-3.029.358-.753 1.569-1.474 2.846-1.687.21-.031.419-.069.46-.08s.501-.011 1.023 0c.71.016 1.052.048 1.379.122z"/><path fill="#131313" style="fill:var(--color3,#131313)" d="M12.149 13.089c-.317.107-.531.245-.818.531-.25.238-.27.52-.061.69.194.159.378.138.613-.069.296-.26.526-.366.813-.366.286-.005.506.096.813.366.235.207.419.228.613.069.102-.085.133-.154.133-.314 0-.164-.036-.238-.215-.418-.506-.509-1.257-.705-1.891-.488zm5.959-.005c-.326.122-.746.398-.914.605-.164.202-.169.43 0 .6.168.18.373.169.618-.032.603-.499 1.053-.514 1.61-.053.143.122.306.218.358.218.25 0 .455-.223.455-.488 0-.169-.424-.562-.808-.748-.424-.207-.93-.244-1.318-.1zm-5.217 9.819c-.148.143-.2.349-.123.514.056.132.143.185.496.281.159.042.225.095.281.228.072.176.077.176.471.191l.393.016v-.149c-.005-.212-.123-.52-.276-.732-.179-.245-.491-.403-.843-.435-.24-.021-.301-.011-.398.085zm4.88-.037c-.255.069-.624.414-.726.684a1.77 1.77 0 0 0-.096.478v.005c-.011.228.01.281.132.392.301.265.7.058.7-.366 0-.207.153-.35.424-.403.286-.053.389-.17.393-.44 0-.355-.317-.493-.828-.35z"/></symbol></defs></svg>