<svg aria-hidden="true" style="position: absolute; width: 0; height: 0; overflow: hidden;" version="1.1" xmlns="http://www.w3.org/2000/svg" xmlns:xlink="http://www.w3.org/1999/xlink">
<defs>
<symbol id="icon-arrow" viewBox="0 0 82 32">
<path d="M81.414 17.414c0.781-0.781 0.781-2.047 0-2.828l-12.728-12.728c-0.781-0.781-2.047-0.781-2.828 0s-0.781 2.047 0 2.828l11.314 11.314-11.314 11.314c-0.781 0.781-0.781 2.047 0 2.828s2.047 0.781 2.828 0l12.728-12.728zM0 18h80v-4h-80v4z"></path>
</symbol>
<symbol id="icon-more-sign" viewBox="0 0 32 32">
<path d="M10.586 3.272c-0.362 0.362-0.586 0.862-0.586 1.414s0.224 1.052 0.586 1.414l9.9 9.9-9.9 9.9c-0.347 0.359-0.561 0.849-0.561 1.389 0 1.105 0.895 2 2 2 0.54 0 1.030-0.214 1.39-0.562l-0.001 0.001 11.314-11.314c0.362-0.362 0.586-0.862 0.586-1.414s-0.224-1.052-0.586-1.414l-11.314-11.314c-0.362-0.362-0.862-0.586-1.414-0.586s-1.052 0.224-1.414 0.586v0z"></path>
</symbol>
<symbol id="icon-burger" viewBox="0 0 32 32">
<path fill="none" stroke="#fff" style="stroke: var(--color1, #fff)" stroke-linejoin="miter" stroke-linecap="round" stroke-miterlimit="4" stroke-width="2" d="M6 10h20M6 16h20M6 22h20"></path>
</symbol>
<symbol id="icon-close" viewBox="0 0 32 32">
<path  d="M23.884 6.706l-7.884 7.884-7.884-7.884c-0.177-0.162-0.414-0.262-0.674-0.262-0.551 0-0.998 0.447-0.998 0.998 0 0.26 0.099 0.497 0.262 0.674l-0.001-0.001 7.88 7.884-7.882 7.882c-0.181 0.181-0.293 0.43-0.293 0.706 0 0.551 0.447 0.998 0.998 0.998 0.275 0 0.524-0.111 0.705-0.292v0l7.886-7.882 7.884 7.884c0.177 0.162 0.414 0.262 0.674 0.262 0.551 0 0.998-0.447 0.998-0.998 0-0.26-0.099-0.497-0.262-0.674l0.001 0.001-7.884-7.884 7.884-7.886c0.181-0.181 0.293-0.43 0.293-0.706 0-0.551-0.447-0.998-0.998-0.998-0.275 0-0.524 0.111-0.705 0.292v0 0.002z"></path>
</symbol>
<symbol id="facebook-icon" viewBox="0 0 16 32">
<path d="M14.143 15.972h-4.034v14.865h-6.112v-14.865h-2.907v-5.224h2.907v-3.381c0-2.418 1.142-6.203 6.166-6.203l4.527 0.019v5.071h-3.285c-0.539 0-1.296 0.271-1.296 1.424v3.075h4.567l-0.534 5.219z"></path>
</symbol>
<symbol id="github-icon" viewBox="0 0 32 32">
<path d="M16 0c-8.788 0-16 7.212-16 16 0 7.499 5.262 14.312 12.25 16v-5.293c-0.692 0.152-1.33 0.156-2.034-0.052-0.946-0.279-1.714-0.909-2.284-1.869-0.364-0.613-1.008-1.278-1.68-1.23l-0.165-1.868c1.453-0.124 2.711 0.886 3.457 2.14 0.332 0.558 0.713 0.884 1.203 1.029 0.473 0.14 0.982 0.072 1.574-0.137 0.149-1.186 0.692-1.63 1.102-2.255v-0.001c-4.167-0.622-5.828-2.832-6.488-4.578-0.874-2.317-0.405-5.212 1.14-7.041 0.030-0.036 0.084-0.129 0.063-0.194-0.708-2.139 0.155-3.909 0.187-4.097 0.817 0.242 0.95-0.243 3.551 1.337l0.449 0.27c0.188 0.112 0.129 0.048 0.317 0.034 1.086-0.295 2.23-0.458 3.358-0.472 1.136 0.015 2.273 0.178 3.404 0.484l0.145 0.015c-0.013-0.002 0.040-0.009 0.127-0.062 3.248-1.968 3.132-1.324 4.003-1.608 0.032 0.188 0.883 1.987 0.182 4.099-0.095 0.291 2.816 2.956 1.203 7.235-0.659 1.746-2.32 3.957-6.487 4.578v0.001c0.534 0.814 1.176 1.247 1.173 2.927v6.608c6.988-1.688 12.25-8.501 12.25-16 0-8.788-7.212-16-16-16v0z"></path>
</symbol>
<symbol id="telegram-icon" viewBox="0 0 44 32">
<path d="M17.343 21.048l-0.675 8.86c0.966 0 1.384-0.387 1.885-0.852l4.527-4.038 9.381 6.412c1.72 0.895 2.933 0.424 3.397-1.477l6.157-26.929 0.002-0.002c0.546-2.374-0.92-3.302-2.596-2.72l-36.194 12.933c-2.47 0.895-2.433 2.18-0.42 2.762l9.253 2.686 21.494-12.552c1.012-0.625 1.931-0.279 1.175 0.346l-17.386 14.57z"></path>
</symbol>
<symbol id="icon-ice-crema" viewBox="0 0 31 32">
<path fill="#f8d24e" style="fill: var(--color1, #f8d24e)" d="M15.686 0c8.663 0 15.686 7.023 15.686 15.686v0.008c0 8.663-7.023 15.686-15.686 15.686s-15.686-7.023-15.686-15.686v-0.008c0-8.663 7.023-15.686 15.686-15.686z"></path>
<path fill="#000" style="fill: var(--color2, #000)" d="M15.763 6.35c0.056 0.152 0.17 0.884 0.17 1.111 0 0.002 0 0.005 0 0.008 0 0.577-0.225 1.102-0.591 1.492l0.001-0.001c-0.317 0.34-0.634 0.529-1.394 0.836-0.846 0.345-1.196 0.553-1.592 0.945-0.402 0.402-0.638 0.841-0.723 1.357-0.095 0.562 0 0.959 0.288 1.186l0.146 0.113-0.232 0.147c-0.467 0.307-1.318 1.030-1.464 1.252-0.284 0.425-0.255 0.822 0.066 0.983l0.151 0.075-0.17 0.161c-0.255 0.241-0.307 0.407-0.27 0.841 0.024 0.289 0.014 0.445-0.051 0.681-0.080 0.307-0.080 0.312 0.023 0.53 0.104 0.213 0.397 0.482 0.662 0.595 0.127 0.056 0.132 0.075 0.161 0.51 0.014 0.251 0.038 1.049 0.056 1.777 0.014 0.728 0.048 1.394 0.075 1.474 0.024 0.085 0.114 0.198 0.194 0.255 0.274 0.189 0.463 0.393 0.585 0.629 0.137 0.27 0.289 0.931 0.747 3.218l0.322 1.606 0.198 0.189c0.378 0.373 1.101 0.543 2.292 0.543 1.195 0 1.909-0.166 2.287-0.539l0.203-0.193 0.292-1.489c0.647-3.256 0.704-3.435 1.21-3.837 0.156-0.128 0.307-0.284 0.335-0.355 0.033-0.080 0.067-0.7 0.090-1.635 0.019-0.831 0.048-1.654 0.067-1.829l0.028-0.316 0.307-0.232c0.387-0.297 0.538-0.567 0.538-0.983-0.004-0.491-0.326-1.030-0.912-1.512l-0.279-0.226 0.137-0.194c0.572-0.789 0.213-1.88-0.851-2.608l-0.321-0.222 0.118-0.123c0.525-0.562 0.61-2.24 0.17-3.407-0.264-0.695-0.87-1.451-1.611-2.008-0.364-0.274-1.366-0.879-1.456-0.879-0.019 0-0.019 0.033-0.004 0.075zM17.124 7.999c0.251 0.246 0.553 0.581 0.671 0.751 0.704 0.983 0.883 2.217 0.458 3.124-0.17 0.368-0.681 0.916-1.153 1.242-0.723 0.501-2.349 1.343-3.482 1.805-1.824 0.742-2.883 0.884-3.005 0.397-0.048-0.184 0.090-0.331 0.671-0.718 0.524-0.359 2.877-2.108 2.92-2.178 0.014-0.019-0.227 0.090-0.53 0.241-1.025 0.52-1.512 0.42-1.488-0.302 0.014-0.525 0.392-1.119 0.916-1.46 0.133-0.085 0.544-0.274 0.922-0.425 1.242-0.501 1.621-0.756 2.041-1.384 0.251-0.373 0.525-1.064 0.543-1.357 0.005-0.104 0.024-0.184 0.038-0.184s0.227 0.203 0.477 0.449zM18.414 13.368c0.345 0.193 0.704 0.525 0.86 0.784 0.275 0.467 0.133 0.936-0.458 1.531-0.642 0.653-1.739 1.276-2.944 1.673-1.111 0.364-2.174 0.534-3.696 0.586l-0.945 0.033 0.615 0.038c0.794 0.052 2.329 0.005 2.925-0.090 1.583-0.251 2.93-0.752 3.894-1.441 0.218-0.156 0.444-0.284 0.506-0.284 0.156 0 0.836 0.653 0.973 0.926 0.076 0.156 0.095 0.27 0.080 0.42-0.071 0.629-0.836 0.964-2.684 1.186-2.259 0.27-5.212 0.005-6.474-0.576-0.596-0.274-0.695-0.43-0.543-0.846 0.047-0.132 0.056-0.289 0.038-0.511-0.024-0.293-0.019-0.331 0.085-0.439 0.237-0.255 0.634-0.402 2.089-0.771 0.51-0.132 1.205-0.34 1.535-0.463 0.803-0.293 2.311-1.054 3.010-1.522 0.657-0.435 0.752-0.454 1.134-0.236zM12.138 19.152c0.993 0.289 1.872 0.373 3.507 0.34 1.229-0.023 1.985-0.099 3.076-0.293 0.223-0.038 0.416-0.071 0.44-0.071 0.052 0 0.038 1.815-0.019 2.292-0.061 0.506-0.199 0.898-0.345 0.993-0.151 0.099-0.907 0.203-1.919 0.26-2.074 0.113-4.206 0-4.867-0.265-0.359-0.146-0.397-0.336-0.402-2.089 0-1.167 0.009-1.328 0.071-1.304 0.038 0.014 0.245 0.075 0.458 0.137zM13.258 23.169c0.341 0.043 0.709 0.085 0.822 0.099l0.204 0.024-0.18 0.198c-0.232 0.25-0.586 0.751-0.713 1.006-0.146 0.293-0.194 0.312-0.411 0.194l-0.184-0.104-0.104-0.642c-0.055-0.357-0.101-0.609-0.152-0.859l0.020 0.117c-0.043-0.122-0.085-0.122 0.699-0.033zM18.296 23.117c0 0.009-0.024 0.132-0.048 0.27-0.028 0.141-0.146 0.912-0.264 1.715-0.241 1.678-0.402 2.466-0.548 2.731-0.203 0.355-0.69 0.562-1.479 0.629-0.307 0.024-1.234-0.038-1.286-0.085-0.038-0.042 0.775-1.049 0.903-1.115 0.118-0.067 0.151-0.056 0.552 0.151 0.468 0.247 0.705 0.284 0.705 0.128s-0.123-0.307-0.425-0.515c-0.279-0.199-0.378-0.312-0.378-0.445 0-0.038 0.137-0.25 0.302-0.472s0.406-0.577 0.529-0.789l0.232-0.383 0.212 0.029c0.43 0.061 0.543 0.056 0.53-0.038-0.009-0.048-0.090-0.184-0.18-0.298-0.090-0.118-0.161-0.237-0.161-0.26 0-0.090 0.439-0.917 0.582-1.092 0.123-0.151 0.222-0.227 0.222-0.161zM15.342 23.494c0.236 0.156 1.124 0.926 1.181 1.021 0.024 0.043-0.888 1.47-1.068 1.673-0.019 0.024-0.118-0.023-0.217-0.099-0.22-0.166-0.488-0.352-0.762-0.531l-0.060-0.037-0.638-0.42 0.383-0.648c0.68-1.139 0.666-1.12 0.813-1.12 0.075 0 0.241 0.071 0.369 0.161zM17.133 23.664c-0.166 0.203-0.302 0.331-0.359 0.331-0.123 0-0.322-0.109-0.657-0.355l-0.279-0.203 0.558-0.033c0.246-0.009 0.47-0.024 0.692-0.046l-0.046 0.004c0.378-0.061 0.378-0.056 0.090 0.303zM13.56 25.938c0.435 0.17 1.172 0.572 1.385 0.752 0.151 0.122 0.151 0.132 0.090 0.283-0.1 0.199-0.197 0.364-0.304 0.523l0.011-0.017c-0.091 0.135-0.196 0.306-0.295 0.482l-0.022 0.043c-0.151 0.293-0.198 0.317-0.51 0.232-0.336-0.1-0.514-0.27-0.609-0.577-0.128-0.43-0.331-1.644-0.307-1.833 0.009-0.071 0.208-0.028 0.562 0.114z"></path>
</symbol>
<symbol id="icon-weight" viewBox="0 0 32 32">
<path fill="#f8d24e" style="fill: var(--color1, #f8d24e)" d="M16 0c8.837 0 16 7.163 16 16s-7.163 16-16 16c-8.837 0-16-7.163-16-16s7.163-16 16-16z"></path>
<path fill="#000" style="fill: var(--color2, #000)" d="M14.688 4.874c-2.861 0.424-5.218 2.013-6.085 4.093-0.276 0.657-0.351 1.061-0.351 1.853 0.005 0.585 0.026 0.802 0.117 1.118 0.186 0.621 0.319 0.936 0.595 1.382l0.256 0.413-0.288 0.352c-2.271 2.826-2.521 6.8-0.627 9.931 0.707 1.175 1.862 2.329 2.989 3.002l0.335 0.196 9.175-0.077 0.218-0.119c0.761-0.429 1.835-1.387 2.436-2.163 0.87-1.13 1.486-2.5 1.737-3.993l0.007-0.053c0.085-0.533 0.085-2.112-0.005-2.614-0.271-1.547-0.851-2.872-1.766-4.047-0.175-0.223-0.314-0.409-0.314-0.424 0-0.010 0.096-0.171 0.207-0.352 0.255-0.406 0.467-0.875 0.612-1.373l0.010-0.040c0.143-0.518 0.143-1.811 0-2.329-0.511-1.837-2.042-3.369-4.207-4.212-0.607-0.238-1.644-0.492-2.314-0.574-0.622-0.072-2.159-0.058-2.739 0.031zM17.926 5.717c2.84 0.554 4.92 2.292 5.303 4.435 0.085 0.481 0.032 1.299-0.111 1.754-0.144 0.445-0.41 0.968-0.723 1.412-0.128 0.182-0.234 0.388-0.234 0.456s0.111 0.243 0.271 0.419c1.329 1.475 2.031 3.322 2.031 5.32-0.005 2.272-0.877 4.264-2.558 5.827-0.287 0.269-0.697 0.605-0.915 0.75l-0.399 0.269-8.792 0.036-0.34-0.218c-1.234-0.801-2.346-2.126-2.963-3.534-0.776-1.78-0.856-3.845-0.223-5.697 0.335-0.963 0.782-1.749 1.462-2.577 0.277-0.332 0.404-0.528 0.404-0.621 0-0.078-0.138-0.332-0.319-0.595-0.638-0.927-0.899-1.956-0.744-2.929 0.16-0.983 0.606-1.791 1.431-2.592 1.074-1.041 2.574-1.73 4.334-1.988 0.728-0.109 2.34-0.067 3.085 0.072z"></path>
<path fill="#000" style="fill: var(--color2, #000)" d="M14.927 6.628c-2.18 0.357-3.888 1.568-4.447 3.157-0.128 0.357-0.148 0.497-0.148 1.009s0.021 0.652 0.148 1.009c0.080 0.228 0.229 0.544 0.33 0.704 0.277 0.445 0.399 0.461 0.947 0.129 0.788-0.485 1.705-0.857 2.683-1.062l0.056-0.010c0.659-0.134 1.925-0.186 2.643-0.103 1.122 0.129 2.34 0.532 3.313 1.107 0.277 0.16 0.559 0.294 0.628 0.294 0.404 0 0.92-1.164 0.92-2.069 0-2.013-1.926-3.736-4.654-4.166-0.58-0.093-1.862-0.093-2.42 0zM17.559 7.456c0.915 0.196 1.756 0.57 2.388 1.061 0.851 0.657 1.308 1.573 1.234 2.458-0.027 0.352-0.16 0.828-0.239 0.88-0.021 0.010-0.319-0.114-0.659-0.279-0.667-0.327-1.443-0.6-2.254-0.779l-0.070-0.013c-0.495-0.103-0.702-0.119-1.809-0.114-1.090 0-1.318 0.016-1.792 0.114-0.819 0.176-1.457 0.394-2.244 0.766-0.793 0.378-0.75 0.383-0.894-0.083-0.186-0.605-0.069-1.407 0.292-2.013 0.192-0.321 0.718-0.854 1.101-1.117 0.73-0.502 1.368-0.73 2.739-0.979 0.282-0.051 1.846 0.021 2.208 0.099zM16.693 14.131c-0.149 0.187-0.149 0.363 0.005 0.513 0.101 0.099 0.202 0.124 0.57 0.15 0.745 0.054 1.428 0.274 2.027 0.623l-0.022-0.012c0.436 0.259 1.101 0.885 1.399 1.335 0.442 0.646 0.744 1.573 0.744 2.257 0 0.238 0.022 0.31 0.133 0.413 0.17 0.171 0.394 0.171 0.559 0 0.117-0.119 0.122-0.15 0.090-0.657-0.149-2.505-2.292-4.595-4.856-4.736l-0.532-0.031-0.116 0.145z"></path>
</symbol>
<symbol id="icon-cow" viewBox="0 0 31 32">
<path fill="#f8d24e" style="fill: var(--color1, #f8d24e)" d="M15.686 0.144c8.663 0 15.686 7.023 15.686 15.686v0.008c0 8.663-7.023 15.686-15.686 15.686s-15.686-7.023-15.686-15.686v-0.008c0-8.663 7.023-15.686 15.686-15.686z"></path>
<path fill="#131313" style="fill: var(--color3, #131313)" d="M8.747 4.528c-0.184 0.159-0.711 1.257-0.9 1.857-0.225 0.742-0.301 1.299-0.271 2.068 0.041 1.098 0.317 1.931 0.925 2.801 0.159 0.228 0.287 0.424 0.287 0.44 0 0.011-0.097 0.021-0.22 0.021-0.527 0-1.513 0.175-2.269 0.403-1.201 0.361-1.906 0.992-1.906 1.698 0 0.25 0.225 0.674 0.465 0.891 0.465 0.42 1.482 0.818 2.576 1.008 0.378 0.069 1.503 0.186 1.753 0.191 0.046 0 0.062 0.245 0.062 1.045 0 0.69 0.025 1.225 0.077 1.554 0.184 1.178 0.756 2.424 1.512 3.305l0.261 0.302-0.174 0.281c-0.255 0.398-0.353 0.7-0.383 1.151-0.077 1.082 0.597 2.042 1.901 2.716 2.483 1.289 6.342 0.785 7.788-1.018 0.705-0.881 0.787-1.889 0.23-2.801l-0.174-0.281 0.312-0.376c0.583-0.7 0.961-1.4 1.247-2.286 0.24-0.753 0.332-1.48 0.332-2.632 0-0.525 0.015-0.96 0.041-0.96 0.235-0.005 1.365-0.127 1.722-0.191 1.099-0.191 2.096-0.584 2.576-1.008 0.24-0.218 0.465-0.642 0.465-0.891 0-0.786-0.797-1.422-2.28-1.804-0.485-0.127-1.4-0.281-1.845-0.307l-0.21-0.016 0.23-0.318c0.286-0.387 0.644-1.14 0.782-1.634 0.388-1.427 0.148-3.087-0.685-4.673-0.347-0.658-0.587-0.811-0.868-0.552-0.107 0.102-0.153 0.239-0.255 0.738-0.317 1.586-0.905 2.844-1.763 3.771l-0.378 0.414h-8.085l-0.338-0.366c-0.838-0.923-1.446-2.227-1.763-3.819-0.102-0.499-0.148-0.636-0.255-0.737-0.169-0.154-0.333-0.149-0.521 0.016zM9.4 7.674c0.271 0.594 0.609 1.151 1.006 1.665l0.317 0.408-0.332 0.249c-0.312 0.238-0.603 0.579-0.828 0.966l-0.097 0.174-0.245-0.334c-0.838-1.157-1.048-2.573-0.603-4.043 0.215-0.71 0.21-0.705 0.403-0.090 0.092 0.297 0.266 0.748 0.378 1.003zM22.702 6.554c0.185 0.514 0.292 1.107 0.292 1.725 0 0.022-0 0.044-0 0.066l0-0.003c0 0.965-0.255 1.782-0.792 2.514l-0.24 0.329-0.179-0.302c-0.232-0.392-0.531-0.719-0.885-0.975l-0.009-0.006c-0.138-0.090-0.245-0.18-0.245-0.191 0-0.016 0.097-0.138 0.22-0.27 0.567-0.631 1.175-1.766 1.477-2.743 0.092-0.302 0.184-0.552 0.199-0.552s0.092 0.186 0.163 0.409zM20.092 10.432c0.567 0.238 1.109 0.922 1.196 1.501 0.046 0.319 0.153 0.52 0.291 0.552 0.061 0.010 0.486 0.048 0.941 0.079 1.614 0.107 2.887 0.451 3.429 0.923 0.25 0.223 0.225 0.408-0.077 0.637-0.603 0.456-1.906 0.801-3.235 0.86-0.879 0.037-1.063 0.063-1.18 0.185-0.087 0.090-0.097 0.186-0.097 1.146 0 1.3-0.067 2.048-0.23 2.652-0.23 0.822-0.685 1.698-1.216 2.318l-0.22 0.255-0.455-0.271c-0.485-0.301-1.048-0.536-1.648-0.676l-0.038-0.008c-1.937-0.462-4.078-0.181-5.519 0.727l-0.333 0.212-0.21-0.249c-0.286-0.334-0.736-1.050-0.915-1.453-0.393-0.913-0.511-1.655-0.511-3.289 0-1.586 0.082-1.47-1.094-1.533-1.503-0.080-2.648-0.35-3.368-0.806-0.531-0.339-0.444-0.642 0.297-0.998 0.71-0.345 1.687-0.552 3.041-0.636 1.053-0.069 1.078-0.085 1.175-0.594 0.143-0.769 0.71-1.405 1.426-1.608 0.179-0.053 1.18-0.063 4.247-0.058l4.012 0.011 0.291 0.122zM17.219 21.412c1.252 0.307 2.187 0.88 2.591 1.591 0.097 0.164 0.138 0.334 0.158 0.594 0.021 0.323 0.006 0.403-0.117 0.668-0.567 1.205-2.652 2-4.773 1.82-2.55-0.212-4.226-1.634-3.567-3.029 0.358-0.753 1.569-1.474 2.846-1.687 0.21-0.031 0.419-0.069 0.46-0.080s0.501-0.011 1.023 0c0.71 0.016 1.052 0.048 1.379 0.122z"></path>
<path fill="#131313" style="fill: var(--color3, #131313)" d="M12.149 13.089c-0.317 0.107-0.531 0.245-0.818 0.531-0.25 0.238-0.27 0.52-0.061 0.69 0.194 0.159 0.378 0.138 0.613-0.069 0.296-0.26 0.526-0.366 0.813-0.366 0.286-0.005 0.506 0.096 0.813 0.366 0.235 0.207 0.419 0.228 0.613 0.069 0.102-0.085 0.133-0.154 0.133-0.314 0-0.164-0.036-0.238-0.215-0.418-0.506-0.509-1.257-0.705-1.891-0.488zM18.108 13.084c-0.326 0.122-0.746 0.398-0.914 0.605-0.164 0.202-0.169 0.43 0 0.6 0.168 0.18 0.373 0.169 0.618-0.032 0.603-0.499 1.053-0.514 1.61-0.053 0.143 0.122 0.306 0.218 0.358 0.218 0.25 0 0.455-0.223 0.455-0.488 0-0.169-0.424-0.562-0.808-0.748-0.424-0.207-0.93-0.244-1.318-0.1zM12.891 22.903c-0.148 0.143-0.2 0.349-0.123 0.514 0.056 0.132 0.143 0.185 0.496 0.281 0.159 0.042 0.225 0.095 0.281 0.228 0.072 0.176 0.077 0.176 0.471 0.191l0.393 0.016v-0.149c-0.005-0.212-0.123-0.52-0.276-0.732-0.179-0.245-0.491-0.403-0.843-0.435-0.24-0.021-0.301-0.011-0.398 0.085zM17.771 22.866c-0.255 0.069-0.624 0.414-0.726 0.684-0.051 0.142-0.085 0.307-0.096 0.478l-0 0.005c-0.011 0.228 0.010 0.281 0.132 0.392 0.301 0.265 0.7 0.058 0.7-0.366 0-0.207 0.153-0.35 0.424-0.403 0.286-0.053 0.389-0.17 0.393-0.44 0-0.355-0.317-0.493-0.828-0.35z"></path>
</symbol>

</defs>
</svg>
